<svg width="116" height="31" viewBox="0 0 116 31" fill="none" xmlns="http://www.w3.org/2000/svg">
    <path d="M2.3 17.8385C3.6 17.8385 4.6 16.8352 4.6 15.5308C4.6 14.2265 3.6 13.2231 2.3 13.2231C0.999999 13.2231 0 14.2265 0 15.5308C0 16.8352 0.999999 17.8385 2.3 17.8385Z" fill="#ECC200"/>
    <path d="M2.3 30.4807C3.6 30.4807 4.6 29.4774 4.6 28.1731C4.6 26.8687 3.6 25.8654 2.3 25.8654C0.999999 25.8654 0 26.8687 0 28.1731C0 29.4774 0.999999 30.4807 2.3 30.4807Z" fill="#ECC200"/>
    <path d="M14.9 17.8385C16.2 17.8385 17.2 16.8352 17.2 15.5308C17.2 14.2265 16.2 13.2231 14.9 13.2231C13.6 13.2231 12.6 14.2265 12.6 15.5308C12.6 16.8352 13.6 17.8385 14.9 17.8385Z" fill="#ECC200"/>
    <path d="M14.9 30.4807C16.2 30.4807 17.2 29.4774 17.2 28.1731C17.2 26.8687 16.2 25.8654 14.9 25.8654C13.6 25.8654 12.6 26.8687 12.6 28.1731C12.6 29.4774 13.6 30.4807 14.9 30.4807Z" fill="#ECC200"/>
    <path d="M27.5 17.8385C28.8 17.8385 29.8 16.8352 29.8 15.5308C29.8 14.2265 28.8 13.2231 27.5 13.2231C26.2 13.2231 25.2 14.2265 25.2 15.5308C25.2 16.8352 26.2 17.8385 27.5 17.8385Z" fill="#ECC200"/>
    <path d="M2.3 5.19608C3.6 5.19608 4.6 4.19272 4.6 2.88837C4.6 1.58402 3.6 0.580688 2.3 0.580688C0.999999 0.580688 0 1.58402 0 2.88837C0 4.19272 0.999999 5.19608 2.3 5.19608Z" fill="#ECC200"/>
    <path d="M14.9 5.19608C16.2 5.19608 17.2 4.19272 17.2 2.88837C17.2 1.58402 16.2 0.580688 14.9 0.580688C13.6 0.580688 12.6 1.58402 12.6 2.88837C12.6 4.19272 13.6 5.19608 14.9 5.19608Z" fill="#ECC200"/>
    <path d="M27.5 5.19608C28.8 5.19608 29.8 4.19272 29.8 2.88837C29.8 1.58402 28.8 0.580688 27.5 0.580688C26.2 0.580688 25.2 1.58402 25.2 2.88837C25.2 4.19272 26.2 5.19608 27.5 5.19608Z" fill="#ECC200"/>
    <path d="M27.5 30.4807C28.8 30.4807 29.8 29.4774 29.8 28.1731C29.8 26.8687 28.8 25.8654 27.5 25.8654C26.2 25.8654 25.2 26.8687 25.2 28.1731C25.2 29.4774 26.2 30.4807 27.5 30.4807Z" fill="#ECC200"/>
    <path d="M40.2 17.8385C41.5 17.8385 42.5 16.8352 42.5 15.5308C42.5 14.2265 41.5 13.2231 40.2 13.2231C38.9 13.2231 37.9 14.2265 37.9 15.5308C37.9 16.8352 38.9 17.8385 40.2 17.8385Z" fill="#ECC200"/>
    <path d="M40.2 30.4807C41.5 30.4807 42.5 29.4774 42.5 28.1731C42.5 26.8687 41.5 25.8654 40.2 25.8654C38.9 25.8654 37.9 26.8687 37.9 28.1731C37.9 29.4774 38.9 30.4807 40.2 30.4807Z" fill="#ECC200"/>
    <path d="M40.2 5.19608C41.5 5.19608 42.5 4.19272 42.5 2.88837C42.5 1.58402 41.5 0.580688 40.2 0.580688C38.9 0.580688 37.9 1.58402 37.9 2.88837C37.9 4.19272 38.9 5.19608 40.2 5.19608Z" fill="#ECC200"/>
    <path d="M112.4 30.3804C112.5 30.3804 112.6 30.2801 112.6 30.1798V19.6447C112.6 19.5443 112.6 19.5443 112.7 19.5443H115.7C115.8 19.5443 115.9 19.444 115.9 19.3436V18.24C115.9 18.1397 115.8 18.0393 115.7 18.0393H107.8C107.7 18.0393 107.6 18.1397 107.6 18.24V19.3436C107.6 19.444 107.7 19.5443 107.8 19.5443H110.7C110.8 19.5443 110.8 19.6447 110.8 19.6447V30.1798C110.8 30.2801 110.9 30.3804 111 30.3804H112.4ZM96.4 19.6447C96.4 19.5443 96.5 19.5443 96.5 19.5443H98.2C99.8 19.5443 100.6 20.1463 100.6 21.6514C100.6 23.2567 99.8 23.8587 98.2 23.8587H96.3V19.6447H96.4ZM98.4 25.2634C101.1 25.2634 102.5 24.0594 102.5 21.6514C102.5 19.2433 101.1 18.0393 98.4 18.0393H94.9C94.8 18.0393 94.7 18.1397 94.7 18.24V30.1798C94.7 30.2801 94.8 30.3804 94.9 30.3804H96.3C96.4 30.3804 96.5 30.2801 96.5 30.1798V25.2634H98.4ZM86.3 24.9624C86.4 24.9624 86.4 25.0627 86.4 25.0627V30.1798C86.4 30.2801 86.5 30.3804 86.6 30.3804H88C88.1 30.3804 88.2 30.2801 88.2 30.1798V18.24C88.2 18.1397 88.1 18.0393 88 18.0393H86.6C86.5 18.0393 86.4 18.1397 86.4 18.24V23.357C86.4 23.4574 86.3 23.4574 86.3 23.4574H81.6C81.5 23.4574 81.5 23.357 81.5 23.357V18.24C81.5 18.1397 81.4 18.0393 81.3 18.0393H79.9C79.8 18.0393 79.7 18.1397 79.7 18.24V30.1798C79.7 30.2801 79.8 30.3804 79.9 30.3804H81.3C81.4 30.3804 81.5 30.2801 81.5 30.1798V25.0627C81.5 24.9624 81.6 24.9624 81.6 24.9624H86.3ZM73.9 29.8788C74 29.7784 74 29.6781 74 29.5778L73.5 28.5744C73.4 28.4741 73.4 28.4741 73.3 28.4741C72.5 28.8754 72 28.9758 71.1 28.9758C69.2 28.9758 67.8 27.4707 67.8 24.1597C67.8 20.949 69.2 19.3436 71.1 19.3436C72.1 19.3436 72.5 19.5443 73.2 19.8453C73.3 19.9456 73.4 19.9457 73.4 19.745L73.9 18.842C74 18.7416 74 18.6413 73.9 18.541C72.9 18.0393 72.1 17.8386 70.9 17.8386C67.4 17.8386 65.9 20.4473 65.9 24.0594C65.9 27.7717 67.4 30.3804 70.9 30.3804C72.1 30.5811 72.9 30.3804 73.9 29.8788ZM55.6 19.6447C55.6 19.5443 55.7 19.5443 55.7 19.5443H60.5C60.6 19.5443 60.7 19.444 60.7 19.3436V18.24C60.7 18.1397 60.6 18.0393 60.5 18.0393H54.1C54 18.0393 53.9 18.1397 53.9 18.24V30.1798C53.9 30.2801 54 30.3804 54.1 30.3804H55.5C55.6 30.3804 55.7 30.2801 55.7 30.1798V24.862H59.5C59.6 24.862 59.7 24.7617 59.7 24.6614V23.5577C59.7 23.4574 59.6 23.357 59.5 23.357H55.7V19.6447H55.6Z" fill="black"/>
    <path d="M90.8 0.982385C90.8 0.781716 90.7 0.781704 90.6 0.781704H88.3C88.2 0.781704 88.1 0.882051 88.1 0.982385V9.20982C88.1 10.4138 87.4 11.0158 86.1 11.0158C84.8 11.0158 84.1 10.4138 84.1 9.20982V0.982385C84.1 0.781716 84 0.781704 83.9 0.781704H81.6C81.4 0.781704 81.4 0.882051 81.4 0.982385V9.31013C81.4 11.7182 82.7 13.2232 86.1 13.2232C89.4 13.2232 90.8 11.7182 90.8 9.31013V0.982385ZM72.3 13.0225C72.5 13.0225 72.5 12.9222 72.5 12.8218V3.08942C72.5 2.98908 72.5 2.98907 72.6 2.98907H75.5C75.6 2.98907 75.7 2.88873 75.7 2.78839V1.08273C75.7 0.882057 75.6 0.882045 75.5 0.882045H66.8C66.6 0.882045 66.6 0.982391 66.6 1.08273V2.78839C66.6 2.98906 66.7 2.98907 66.8 2.98907H69.6C69.7 2.98907 69.7 3.08942 69.7 3.08942V12.8218C69.7 13.0225 69.8 13.0225 69.9 13.0225H72.3ZM53.5 12.4205C54.7 13.0225 55.8 13.1229 57.2 13.1229C59.8 13.1229 61.5 11.8185 61.5 9.41047C61.5 7.70479 60.7 6.60113 58.6 5.69812C56.8 4.99578 56.5 4.59443 56.5 3.99242C56.5 3.29008 57 2.78839 58.1 2.78839C58.9 2.78839 59.6 2.88875 60.2 3.18976C60.4 3.29009 60.5 3.18975 60.5 3.08942L61.3 1.48406C61.4 1.38372 61.4 1.2834 61.2 1.18307C60 0.681394 59.2 0.480713 57.6 0.480713C55.1 0.480713 53.6 1.98573 53.6 3.99242C53.6 5.79844 54.5 6.90211 56.6 7.80512C58.2 8.50746 58.6 8.90881 58.6 9.61116C58.6 10.3135 58 10.8152 57 10.8152C55.8 10.8152 55.2 10.6145 54.5 10.2132C54.4 10.1128 54.3 10.2131 54.2 10.3135L53.4 12.1195C53.4 12.3202 53.4 12.4205 53.5 12.4205Z" fill="black"/>
</svg>